<?xml version="1.0" encoding="UTF-8"?>
<svg width="41px" height="40px" viewBox="0 0 41 40" version="1.1" xmlns="http://www.w3.org/2000/svg" xmlns:xlink="http://www.w3.org/1999/xlink">
    <title>icon-linkedin</title>
    <g id="Page-1" stroke="none" stroke-width="1" fill="none" fill-rule="evenodd">
        <g id="icon-linkedin">
            <path d="M39.5914872,20.0060513 C39.5914872,30.7620513 30.8449231,39.4842051 20.0521026,39.4842051 C9.25939487,39.4842051 0.512820513,30.7620513 0.512820513,20.0060513 C0.512820513,9.24998974 9.25939487,0.527844103 20.0521026,0.527844103 C30.8449231,0.527844103 39.5914872,9.24998974 39.5914872,20.0060513 Z" id="Path" stroke="#0B1620"></path>
            <path d="M11.7391795,17.0877949 L15.2922051,17.0877949 L15.2922051,29.4321026 L11.7391795,29.4321026 L11.7391795,17.0877949 Z M13.4250256,15.5433846 L13.3992821,15.5433846 C12.1131282,15.5433846 11.2792821,14.5995897 11.2792821,13.4043077 C11.2792821,12.1847179 12.1378462,11.2594872 13.449641,11.2594872 C14.7605128,11.2594872 15.5664615,12.182359 15.5922051,13.4008205 C15.5922051,14.5961026 14.7605128,15.5433846 13.4250256,15.5433846 Z M29.5086154,29.4331282 L25.4796923,29.4331282 L25.4796923,23.0437949 C25.4796923,21.3716923 24.8494359,20.2313846 23.4635897,20.2313846 C22.4035897,20.2313846 21.8140513,21.0005128 21.5396923,21.744 C21.4368205,22.0093333 21.4528205,22.3805128 21.4528205,22.7529231 L21.4528205,29.4331282 L17.4614359,29.4331282 C17.4614359,29.4331282 17.5129231,18.116 17.4614359,17.0873846 L21.4528205,17.0873846 L21.4528205,19.0247179 C21.6886154,18.177641 22.9641026,16.9686154 24.9994872,16.9686154 C27.5247179,16.9686154 29.5086154,18.7454359 29.5086154,22.5678974 L29.5086154,29.4331282 Z" id="Shape" fill="#0B1620"></path>
        </g>
    </g>
</svg>