<?xml version="1.0" encoding="UTF-8"?>
<svg width="41px" height="40px" viewBox="0 0 41 40" version="1.1" xmlns="http://www.w3.org/2000/svg" xmlns:xlink="http://www.w3.org/1999/xlink">
    <title>icon-twitter</title>
    <g id="Page-1" stroke="none" stroke-width="1" fill="none" fill-rule="evenodd">
        <g id="icon-twitter">
            <path d="M39.5914872,20.0056 C39.5914872,30.7807 30.8327179,39.4966 20.0521026,39.4966 C9.27157949,39.4966 0.512820513,30.7807 0.512820513,20.0056 C0.512820513,9.2305 9.27157949,0.514648 20.0521026,0.514648 C30.8327179,0.514648 39.5914872,9.2305 39.5914872,20.0056 Z" id="Path" stroke="#0B1620"></path>
            <path d="M27.8233846,15.3217 C28.6345641,14.8114 29.2569231,14.0022 29.5490256,13.0383 C28.7895385,13.512 27.950359,13.8545 27.0548718,14.04 C26.3404103,13.2367 25.3191795,12.7358 24.1889231,12.7358 C22.0206154,12.7358 20.2634872,14.5846 20.2634872,16.8645 C20.2634872,17.1882 20.2961026,17.5036 20.3634872,17.8048 C17.1009231,17.6324 14.2078974,15.9904 12.2699487,13.4907 C11.9317949,14.1026 11.7385641,14.8114 11.7385641,15.5674 C11.7385641,16.9992 12.4316923,18.2632 13.4855385,19.0051 C12.8417436,18.9838 12.2362051,18.796 11.7059487,18.4888 L11.7059487,18.5396 C11.7059487,20.5408 13.0586667,22.21 14.8573333,22.588 C14.5269744,22.6848 14.1810256,22.7333 13.8214359,22.7333 C13.5687179,22.7333 13.3215385,22.7085 13.0833846,22.66 C13.5821538,24.2997 15.0326154,25.4952 16.7514872,25.5271 C15.4066667,26.6352 13.713641,27.2943 11.8744615,27.2943 C11.557641,27.2943 11.2442051,27.2766 10.9375385,27.2376 C12.6754872,28.4083 14.7393846,29.0923 16.9571282,29.0923 C24.1810256,29.0923 28.1289231,22.8006 28.1289231,17.3441 C28.1289231,17.1646 28.1266667,16.9862 28.1188718,16.8102 C28.8861538,16.2278 29.5535385,15.5001 30.0781538,14.672 C29.3737436,15.0004 28.6165128,15.2225 27.8233846,15.3217 Z" id="Path" fill="#0B1620"></path>
        </g>
    </g>
</svg>