<?xml version="1.0" encoding="UTF-8"?>
<svg width="41px" height="40px" viewBox="0 0 41 40" version="1.1" xmlns="http://www.w3.org/2000/svg" xmlns:xlink="http://www.w3.org/1999/xlink">
    <title>icon-facebook</title>
    <g id="Page-1" stroke="none" stroke-width="1" fill="none" fill-rule="evenodd">
        <g id="icon-facebook">
            <path d="M39.5914872,20.0056 C39.5914872,30.7807 30.8327179,39.4966 20.0521026,39.4966 C9.27157949,39.4966 0.512820513,30.7807 0.512820513,20.0056 C0.512820513,9.2305 9.27157949,0.514648 20.0521026,0.514648 C30.8327179,0.514648 39.5914872,9.2305 39.5914872,20.0056 Z" id="Path" stroke="#0B1620"></path>
            <path d="M21.2504615,31.8188 L16.8048205,31.8188 L16.8048205,21.3673 L14.5833846,21.3673 L14.5833846,17.7661 L16.8048205,17.7661 L16.8048205,15.604 C16.8048205,12.6663 18.0584615,10.9185 21.6226667,10.9185 L24.5891282,10.9185 L24.5891282,14.521 L22.7350769,14.521 C21.3475897,14.521 21.2558974,15.0243 21.2558974,15.9635 L21.2497436,17.7661 L24.6095385,17.7661 L24.2163077,21.3673 L21.2497436,21.3673 L21.2497436,31.8188 L21.2504615,31.8188 Z" id="Path" fill="#0B1620"></path>
        </g>
    </g>
</svg>