<?xml version="1.0" encoding="UTF-8"?>
<svg width="41px" height="40px" viewBox="0 0 41 40" version="1.1" xmlns="http://www.w3.org/2000/svg" xmlns:xlink="http://www.w3.org/1999/xlink">
    <title>icon-youtube</title>
    <g id="Page-1" stroke="none" stroke-width="1" fill="none" fill-rule="evenodd">
        <g id="icon-youtube">
            <path d="M39.5914872,20 C39.5914872,30.7803 30.8325128,39.5 20.0521026,39.5 C9.27178462,39.5 0.512820513,30.7803 0.512820513,20 C0.512820513,9.21968 9.27178462,0.5 20.0521026,0.5 C30.8325128,0.5 39.5914872,9.21968 39.5914872,20 Z" id="Path" stroke="#0B1620"></path>
            <path d="M10.2564103,11 C7.99062564,11 6.15384615,12.7909 6.15384615,15 L6.15384615,25 C6.15384615,27.2091 7.99062564,29 10.2564103,29 L29.7435897,29 C32.0093333,29 33.8461538,27.2091 33.8461538,25 L33.8461538,15 C33.8461538,12.7909 32.0093333,11 29.7435897,11 L10.2564103,11 Z M16.6666667,24.3971 L23.5897436,20.5 L16.6666667,16.6029 L16.6666667,24.3971 Z" id="Shape" fill="#0B1620"></path>
        </g>
    </g>
</svg>