<?xml version="1.0" encoding="UTF-8"?>
<svg width="42px" height="42px" viewBox="0 0 42 42" version="1.1" xmlns="http://www.w3.org/2000/svg" xmlns:xlink="http://www.w3.org/1999/xlink">
    <title>icon-instagram</title>
    <g id="Page-1" stroke="none" stroke-width="1" fill="none" fill-rule="evenodd">
        <g id="icon-instagram" transform="translate(1.000000, 1.000000)">
            <path d="M20.0521026,39.542 C30.8749744,39.542 39.6485128,30.7951 39.6485128,20.0054 C39.6485128,9.2156 30.8749744,0.46875 20.0521026,0.46875 C9.22934359,0.46875 0.455733333,9.2156 0.455733333,20.0054 C0.455733333,30.7951 9.22934359,39.542 20.0521026,39.542 Z" id="Path" stroke="#0B1620"></path>
            <path d="M16.2925128,10.9795 C17.2643077,10.9353 17.5746667,10.9248 20.0492308,10.9248 C22.5237949,10.9248 22.8340513,10.9353 23.8059487,10.9795 C24.7757949,11.0236 25.4381538,11.1771 26.0177436,11.4017 C26.6169231,11.6338 27.1251282,11.9444 27.6315897,12.4494 C28.1382564,12.9544 28.4497436,13.461 28.6825641,14.0583 C28.9078974,14.6361 29.0619487,15.2964 29.1061538,16.2633 C29.1504615,17.2322 29.1609231,17.5415 29.1609231,20.0085 C29.1609231,22.4755 29.1504615,22.7849 29.1061538,23.7538 C29.0619487,24.7206 28.9078974,25.3809 28.6825641,25.9587 C28.4497436,26.5561 28.1382564,27.0627 27.6315897,27.5676 C27.1251282,28.0727 26.6169231,28.3832 26.0177436,28.6154 C25.4381538,28.84 24.7757949,28.9935 23.8059487,29.0377 C22.8340513,29.0818 22.5237949,29.0923 20.0492308,29.0923 C17.5746667,29.0923 17.2643077,29.0818 16.2925128,29.0377 C15.3225641,28.9935 14.6603077,28.84 14.0806154,28.6154 C13.4815385,28.3832 12.9733333,28.0727 12.4667692,27.5676 C11.9602051,27.0627 11.6487179,26.556 11.4157949,25.9587 C11.1905641,25.3809 11.0366154,24.7206 10.9923077,23.7538 C10.948,22.7849 10.9375385,22.4755 10.9375385,20.0085 C10.9375385,17.5415 10.948,17.2322 10.9923077,16.2633 C11.0366154,15.2964 11.1905641,14.6361 11.4157949,14.0583 C11.6487179,13.461 11.9602051,12.9544 12.4667692,12.4494 C12.9733333,11.9444 13.4815385,11.6338 14.0806154,11.4017 C14.6603077,11.1771 15.3225641,11.0236 16.2925128,10.9795 Z M23.7310769,12.614 C22.770359,12.5703 22.4821538,12.561 20.0492308,12.561 C17.6163077,12.561 17.3281026,12.5703 16.3672821,12.614 C15.4788718,12.6544 14.9964103,12.8024 14.6753846,12.9268 C14.2500513,13.0916 13.9465641,13.2884 13.6276923,13.6063 C13.3088205,13.9242 13.1113846,14.2268 12.9460513,14.6508 C12.8213333,14.9709 12.6729231,15.4519 12.6323077,16.3376 C12.5885128,17.2954 12.5792821,17.5828 12.5792821,20.0083 C12.5792821,22.4338 12.5885128,22.7212 12.6323077,23.679 C12.6729231,24.5647 12.8213333,25.0457 12.9460513,25.3658 C13.1113846,25.7898 13.3088205,26.0924 13.6276923,26.4103 C13.9465641,26.7282 14.2500513,26.925 14.6753846,27.0898 C14.9964103,27.2142 15.4788718,27.3622 16.3672821,27.4026 C17.328,27.4463 17.6161026,27.4556 20.0492308,27.4556 C22.482359,27.4556 22.7704615,27.4463 23.7310769,27.4026 C24.6194872,27.3622 25.1019487,27.2142 25.4229744,27.0898 C25.8483077,26.925 26.1518974,26.7282 26.4707692,26.4103 C26.7895385,26.0924 26.9869744,25.7898 27.1523077,25.3658 C27.2770256,25.0457 27.4255385,24.5647 27.4660513,23.679 C27.5098462,22.7212 27.5191795,22.4338 27.5191795,20.0083 C27.5191795,17.5828 27.5098462,17.2954 27.4660513,16.3376 C27.4255385,15.4519 27.2770256,14.9709 27.1523077,14.6508 C26.9869744,14.2268 26.7895385,13.9242 26.4707692,13.6063 C26.1518974,13.2884 25.8483077,13.0916 25.4229744,12.9268 C25.1019487,12.8024 24.6194872,12.6544 23.7310769,12.614 Z" id="Shape" fill="#0B1620"></path>
            <path d="M15.3567179,20.0054 C15.3567179,17.42 17.4588718,15.3242 20.0521026,15.3242 C22.6453333,15.3242 24.7474872,17.42 24.7474872,20.0054 C24.7474872,22.5907 22.6453333,24.6865 20.0521026,24.6865 C17.4588718,24.6865 15.3567179,22.5907 15.3567179,20.0054 Z M17.0042051,20.006 C17.0042051,21.6841 18.3688205,23.0446 20.0521026,23.0446 C21.7353846,23.0446 23.1,21.6841 23.1,20.006 C23.1,18.3279 21.7353846,16.9674 20.0521026,16.9674 C18.3688205,16.9674 17.0042051,18.3279 17.0042051,20.006 Z" id="Shape" fill="#0B1620"></path>
            <path d="M25.8523077,15.3246 C25.8523077,15.9332 25.3577436,16.4265 24.7474872,16.4265 C24.1373333,16.4265 23.6426667,15.9332 23.6426667,15.3246 C23.6426667,14.716 24.1373333,14.2227 24.7474872,14.2227 C25.3577436,14.2227 25.8523077,14.716 25.8523077,15.3246 Z" id="Path" fill="#0B1620" fill-rule="nonzero"></path>
        </g>
    </g>
</svg>