<svg width="155" height="34" viewBox="0 0 120 14" fill="none" xmlns="http://www.w3.org/2000/svg">
<path d="M24.5877 11C26.3797 11 27.5977 9.95 27.5977 8.27C27.5977 7.08 27.0377 6.24 26.0577 5.82C26.8277 5.4 27.2477 4.7 27.2477 3.79C27.2477 2.18 26.0577 1.2 24.3077 1.2H19.6877V11H24.5877ZM21.0877 9.81V6.52H24.4477C25.7077 6.52 26.1977 7.29 26.1977 8.2C26.1977 9.11 25.7777 9.81 24.5177 9.81H21.0877ZM21.0877 5.33V2.39H24.2377C25.3577 2.39 25.8477 2.95 25.8477 3.86C25.8477 4.77 25.2877 5.33 24.1677 5.33H21.0877ZM31.7008 10.16C30.8608 10.16 30.1608 9.81 30.1608 8.83C30.1608 8.06 30.6508 7.584 31.6308 7.5L34.0108 7.29V7.85C34.0108 9.32 32.9608 10.16 31.7008 10.16ZM30.5528 5.61C30.6228 4.98 31.1968 4.56 32.2608 4.56C33.5908 4.56 34.0108 5.19 34.0108 6.17V6.31L31.4908 6.52C29.6708 6.674 28.8168 7.57 28.8168 8.83C28.8168 10.44 30.0768 11.21 31.5608 11.21C32.7508 11.21 33.5908 10.65 34.0108 10.09V11H35.3548V6.17C35.3548 5.582 35.2288 5.078 35.0048 4.7C34.4868 3.832 33.4648 3.51 32.2608 3.51C30.2868 3.51 29.3068 4.448 29.1668 5.61H30.5528ZM42.3305 8.97C42.0505 9.642 41.4905 10.09 40.5245 10.09C38.9145 10.09 38.2285 8.83 38.2285 7.36C38.2285 5.89 38.9145 4.63 40.5245 4.63C41.4065 4.63 41.9665 5.05 42.2185 5.61H43.6745C43.1985 4.35 42.1625 3.51 40.5245 3.51C38.2145 3.51 36.8845 5.19 36.8845 7.36C36.8845 9.53 38.2145 11.21 40.5245 11.21C42.2465 11.21 43.3385 10.314 43.7445 8.97H42.3305ZM45.1529 11H46.4969V7.64L49.7169 11H51.5509L47.7709 7.22L51.2709 3.72H49.5349L46.4969 6.828V1.2H45.1529V11ZM56.7403 9.25C56.7403 10.37 57.1743 11 58.4343 11H59.9743V9.908H58.7143C58.2243 9.908 58.0843 9.74 58.0843 9.25V4.84H59.9743V3.72H58.0843V2.04H56.7403V3.72H54.9903V4.84H56.7403V9.25ZM60.8373 7.36C60.8373 9.53 62.3073 11.21 64.5473 11.21C66.7873 11.21 68.2573 9.53 68.2573 7.36C68.2573 5.19 66.7873 3.51 64.5473 3.51C62.3073 3.51 60.8373 5.19 60.8373 7.36ZM66.9133 7.36C66.9133 8.83 66.0873 10.09 64.5473 10.09C63.0073 10.09 62.1813 8.83 62.1813 7.36C62.1813 5.89 63.0073 4.63 64.5473 4.63C66.0873 4.63 66.9133 5.89 66.9133 7.36Z" fill="currentColor"/>
<path d="M3.8125 6.96875L1 4.15625L3.8125 1.34375" stroke="currentColor" stroke-width="1.1875" stroke-linecap="round" stroke-linejoin="round"/>
<path d="M3.8125 10.7188H8.96875C9.83899 10.7188 10.6736 10.373 11.2889 9.75769C11.9043 9.14234 12.25 8.30774 12.25 7.4375V7.43749C12.25 7.00659 12.1651 6.57991 12.0002 6.18182C11.8353 5.78372 11.5936 5.422 11.2889 5.1173C10.9843 4.81261 10.6225 4.57092 10.2244 4.40602C9.82634 4.24112 9.39966 4.15625 8.96876 4.15625H1" stroke="currentColor" stroke-width="1.1875" stroke-linecap="round" stroke-linejoin="round"/>
<path d="M75.9636 1.14864C74.3202 1.14864 73.125 2.5207 73.125 3.9796C73.125 5.57171 74.4026 6.82722 75.9636 6.82722H79.4385C80.1851 6.82722 80.9006 7.42977 80.9006 8.25192C80.9006 9.07363 80.2602 9.74593 79.4385 9.74593H73.2722V11.1144H79.6824C81.3321 11.1144 82.5552 9.83863 82.5552 8.25057C82.5552 6.72597 81.2997 5.44571 79.6824 5.44571H76.1261C75.3206 5.44571 74.664 4.79996 74.664 3.97825C74.664 3.16555 75.3399 2.52835 76.1261 2.527H84.8993V11.1139H86.437V2.527H90.3398V1.14819L75.9636 1.14864Z" fill="#009CEB"/>
<path d="M116.561 1.14697V5.44584H110.504V1.14697H108.939V11.1127H110.504V6.8242H116.561V11.1127H118.125V1.14697H116.561Z" fill="#009CEB"/>
<path d="M95.1975 9.73462H92.2095V11.1134H95.1975V9.73462Z" fill="#009CEB"/>
<path d="M104.745 5.44473H101.188C100.383 5.44473 99.7262 4.79898 99.7262 3.97728C99.7262 3.16457 100.402 2.52737 101.188 2.52602H106.907V1.14722L101.026 1.14767C99.3819 1.14767 98.1872 2.51972 98.1872 3.97863C98.1872 5.57073 99.4647 6.82624 101.026 6.82624H104.5C105.247 6.82624 105.963 7.42879 105.963 8.25095C105.963 9.07265 105.322 9.74495 104.5 9.74495H98.4284L94.296 1.14722H93.0734L88.2417 11.1134H89.8109L93.6863 3.22128L97.4919 11.1134H104.745C106.395 11.1134 107.617 9.83765 107.617 8.2496C107.617 6.72499 106.362 5.44473 104.745 5.44473Z" fill="#009CEB"/>
</svg>
