<svg width="30" height="30" viewBox="0 0 30 30" fill="none" xmlns="http://www.w3.org/2000/svg">
<path d="M30 15C30 23.2843 23.2843 30 15 30C6.71573 30 0 23.2843 0 15C0 6.71573 6.71573 0 15 0C23.2843 0 30 6.71573 30 15Z" fill="#37536C"/>
<rect width="13.6364" height="13.6364" transform="translate(23.1818 21.8182) rotate(180)" fill="#37536C"/>
<path fill-rule="evenodd" clip-rule="evenodd" d="M16.3634 8.18153C16.6543 8.18153 16.9452 8.2929 17.1668 8.51449C17.6111 8.95881 17.6111 9.67699 17.1668 10.1213L12.2884 14.9997L17.1668 19.8781C17.6111 20.3224 17.6111 21.0406 17.1668 21.4849C16.7224 21.9293 16.0043 21.9293 15.5599 21.4849L9.87813 15.8031C9.43381 15.3588 9.43381 14.6406 9.87813 14.1963L15.5599 8.51449C15.7815 8.2929 16.0724 8.18153 16.3634 8.18153Z" fill="white"/>
</svg>
