<svg width="27" height="28" viewBox="0 0 27 28" fill="none" xmlns="http://www.w3.org/2000/svg">
<g clip-path="url(#clip0_794_3700)">
<path d="M25.2281 10.6865C25.1225 10.3542 24.919 10.0616 24.6442 9.84709C24.3694 9.63253 24.0362 9.50602 23.6883 9.48413L17.4234 9.05171L15.1031 3.19819C14.9764 2.87588 14.7559 2.59903 14.4701 2.40347C14.1842 2.20791 13.8463 2.10265 13.5 2.10132C13.1537 2.10265 12.8157 2.20791 12.5299 2.40347C12.2441 2.59903 12.0236 2.87588 11.8969 3.19819L9.53437 9.08335L3.31171 9.48413C2.9642 9.50743 2.63167 9.63448 2.35715 9.84883C2.08263 10.0632 1.87874 10.355 1.77187 10.6865C1.66212 11.023 1.6557 11.3848 1.75346 11.725C1.85121 12.0653 2.04864 12.3685 2.3203 12.5955L7.10859 16.6455L5.68476 22.2458C5.58625 22.6247 5.60398 23.0245 5.73564 23.3931C5.8673 23.7618 6.10681 24.0823 6.42304 24.313C6.72999 24.5333 7.09569 24.657 7.47334 24.6683C7.85099 24.6796 8.22342 24.5779 8.54296 24.3763L13.4894 21.2439H13.5105L18.8367 24.6083C19.1099 24.7859 19.4285 24.8811 19.7543 24.8826C20.0203 24.8805 20.2824 24.8174 20.5202 24.6982C20.7581 24.579 20.9654 24.4069 21.1264 24.195C21.2873 23.9832 21.3975 23.7372 21.4485 23.4761C21.4996 23.215 21.49 22.9457 21.4207 22.6888L19.9125 16.5611L24.6797 12.5955C24.9513 12.3685 25.1488 12.0653 25.2465 11.725C25.3443 11.3848 25.3379 11.023 25.2281 10.6865Z" fill="#0B1015"/>
</g>
<defs>
<clipPath id="clip0_794_3700">
<rect width="27" height="27" fill="white" transform="translate(0 0.413818)"/>
</clipPath>
</defs>
</svg>
