<svg width="44" height="44" viewBox="0 0 44 44" fill="none" xmlns="http://www.w3.org/2000/svg">
<g clip-path="url(#clip0_794_3734)">
<path d="M35.433 14.991H8.17678C7.42412 14.991 6.81396 15.6011 6.81396 16.3538V35.4332C6.81396 36.1858 7.42412 36.796 8.17678 36.796H35.433C36.1857 36.796 36.7958 36.1858 36.7958 35.4332V16.3538C36.7958 15.6011 36.1857 14.991 35.433 14.991Z" stroke="white" stroke-width="1.34" stroke-linecap="round" stroke-linejoin="round"/>
<path d="M15.6724 14.991V8.8583C15.6724 7.23182 16.3185 5.67196 17.4686 4.52186C18.6187 3.37176 20.1785 2.72565 21.805 2.72565C23.4315 2.72565 24.9914 3.37176 26.1415 4.52186C27.2916 5.67196 27.9377 7.23182 27.9377 8.8583V14.991" stroke="white" stroke-width="1.34" stroke-linecap="round" stroke-linejoin="round"/>
</g>
<defs>
<clipPath id="clip0_794_3734">
<rect width="43.61" height="43.61" fill="white"/>
</clipPath>
</defs>
</svg>
